<svg width="48" height="49" viewBox="0 0 48 49" fill="none" xmlns="http://www.w3.org/2000/svg">
<path d="M5 24.2C5 15.2433 5 10.7649 7.78248 7.98243C10.565 5.19995 15.0433 5.19995 24 5.19995C32.9566 5.19995 37.435 5.19995 40.2176 7.98243C43 10.7649 43 15.2433 43 24.2C43 33.1566 43 37.635 40.2176 40.4176C37.435 43.2 32.9566 43.2 24 43.2C15.0433 43.2 10.565 43.2 7.78248 40.4176C5 37.635 5 33.1566 5 24.2Z" stroke="white" stroke-width="3" stroke-linejoin="round"/>
<path d="M13.5015 24.17V18.2098C13.5015 17.6456 13.9646 17.1882 14.5358 17.1882H18.4914C19.3712 17.1882 20.2754 17.3396 20.931 17.919C21.6324 18.5387 22.3126 19.4987 22.2788 20.7818C22.2396 22.2782 21.147 24.0468 19.5461 24.17C17.9452 24.2932 16.4411 24.17 13.5015 24.17ZM13.5015 24.17V30.135C13.5015 30.6992 13.9646 31.156 14.5358 31.1616C16.8172 31.1834 18.1445 31.2644 19.5461 31.1566C21.147 31.0332 22.2396 29.2646 22.2788 27.7682C22.3126 26.4852 21.6324 25.5252 20.931 24.9054C20.2754 24.326 19.3712 24.1746 18.4914 24.1746L13.5015 24.17ZM33.5906 30.131C32.7142 30.9802 28.4452 32.6586 26.9072 28.241C26.7474 27.8 26.6202 26.8488 26.6944 26.114M26.6944 26.114C26.821 24.8628 27.3732 23.1078 29.4228 22.3916C32.358 21.366 34.2038 24.213 34.6818 26.114H26.6944ZM29.1774 18.2019H31.8978" stroke="white" stroke-width="3" stroke-linecap="round" stroke-linejoin="round"/>
</svg>
