<svg width="70" height="70" viewBox="0 0 70 70" fill="none" xmlns="http://www.w3.org/2000/svg">
<path d="M6.58 45.594C6.67905 44.6513 7.36216 43.8915 8.72842 42.3722L11.7357 39.0102C12.4708 38.0795 12.9924 36.4584 12.9924 34.9995C12.9924 33.5417 12.4706 31.92 11.7356 30.9896L8.72842 27.6276C7.36216 26.1082 6.67902 25.3485 6.58 24.4058C6.48095 23.463 6.99125 22.5775 8.01182 20.8063L9.45143 18.3079C10.5402 16.4184 11.0846 15.4736 12.0109 15.0969C12.9371 14.7202 13.9847 15.0175 16.0798 15.612L19.6388 16.6145C20.9765 16.9229 22.3798 16.7479 23.6012 16.1204L24.5837 15.5535C25.6311 14.8827 26.4366 13.8936 26.8825 12.7311L27.8566 9.82203C28.497 7.897 28.8172 6.93447 29.5795 6.38392C30.3419 5.83337 31.3545 5.83337 33.3796 5.83337H36.6311C38.6564 5.83337 39.6691 5.83337 40.4312 6.38392C41.1936 6.93447 41.5139 7.897 42.1544 9.82203L43.1283 12.7311C43.5742 13.8936 44.3798 14.8827 45.4272 15.5535L46.4098 16.1204C47.631 16.7479 49.0345 16.9229 50.3721 16.6145L53.931 15.612C56.026 15.0175 57.0737 14.7202 58 15.0969C58.9264 15.4736 59.4706 16.4184 60.5594 18.3079L61.9991 20.8063C63.0196 22.5775 63.5298 23.463 63.4309 24.4058C63.3317 25.3485 62.6486 26.1082 61.2825 27.6276L58.2751 30.9896C57.5404 31.92 57.0183 33.5417 57.0183 34.9995C57.0183 36.4584 57.5401 38.0795 58.2751 39.0102L61.2825 42.3722C62.6486 43.8915 63.3317 44.6513 63.4309 45.594C63.5298 46.5369 63.0196 47.4224 61.9991 49.1934L60.5594 51.6918C59.4706 53.5812 58.9264 54.5262 58 54.9028C57.0737 55.2796 56.026 54.9824 53.931 54.3877L50.3721 53.3852C49.0342 53.0767 47.6307 53.252 46.4092 53.8796L45.4269 54.4466C44.3795 55.1175 43.5742 56.1062 43.1285 57.2688L42.1544 60.1782C41.5139 62.1032 41.1936 63.0657 40.4312 63.616C39.6691 64.1667 38.6564 64.1667 36.6311 64.1667H33.3796C31.3545 64.1667 30.3419 64.1667 29.5795 63.616C28.8172 63.0657 28.497 62.1032 27.8566 60.1782" stroke="#DDDDDD" stroke-width="4.375" stroke-linecap="round"/>
<path d="M7.98312 54.7745C11.1331 51.6245 21.8431 41.0195 22.8931 39.7945C24.0031 38.4995 23.1031 36.7495 23.6386 31.3245C23.8977 28.6995 24.4624 26.7329 26.0781 25.2695C28.0031 23.4495 29.5782 23.4495 35.0032 23.327C39.7282 23.4495 40.2882 22.9245 40.7782 24.1495C41.1282 25.0245 40.0782 25.5495 38.8182 26.9495C36.0182 29.7495 34.3732 31.1495 34.2157 32.0245C33.0782 35.8745 37.5582 38.1495 40.0082 35.6995C40.9346 34.7728 45.2232 30.4495 45.6432 30.0995C45.9582 29.8195 46.7122 29.8329 47.0782 30.2745C47.3932 30.5839 47.4282 30.6245 47.3932 32.0245C47.3609 33.3203 47.3752 35.1809 47.3792 37.0995C47.3842 39.5853 47.2532 42.3495 46.2032 43.7495C44.1032 46.8995 40.6032 47.0745 37.4532 47.2145C34.4782 47.3895 32.0282 47.0745 31.2582 47.6345C30.6282 47.9495 27.3031 51.4495 23.2781 55.4745L16.1031 62.6495C10.1531 67.3745 3.60812 60.0245 7.98312 54.7745Z" fill="#EF7C25" stroke="#DDDDDD" stroke-width="4.375" stroke-linecap="round"/>
</svg>
