<svg width="148" height="24" viewBox="0 0 148 24" fill="none" xmlns="http://www.w3.org/2000/svg">
<path d="M13.7276 3.44418L15.4874 6.99288C15.7274 7.48687 16.3673 7.9607 16.9073 8.05143L20.0969 8.58575C22.1367 8.92853 22.6167 10.4206 21.1468 11.8925L18.6671 14.3927C18.2471 14.8161 18.0172 15.6327 18.1471 16.2175L18.8571 19.3125C19.417 21.7623 18.1271 22.71 15.9774 21.4296L12.9877 19.6452C12.4478 19.3226 11.5579 19.3226 11.0079 19.6452L8.01827 21.4296C5.8785 22.71 4.57865 21.7522 5.13859 19.3125L5.84851 16.2175C5.97849 15.6327 5.74852 14.8161 5.32856 14.3927L2.84884 11.8925C1.389 10.4206 1.85895 8.92853 3.89872 8.58575L7.08837 8.05143C7.61831 7.9607 8.25824 7.48687 8.49821 6.99288L10.258 3.44418C11.2179 1.51861 12.7777 1.51861 13.7276 3.44418Z" fill="#EF7C25" stroke="white" stroke-width="1.5" stroke-linecap="round" stroke-linejoin="round"/>
<path d="M44.7276 3.44418L46.4874 6.99288C46.7274 7.48687 47.3673 7.9607 47.9073 8.05143L51.0969 8.58575C53.1367 8.92853 53.6167 10.4206 52.1468 11.8925L49.6671 14.3927C49.2471 14.8161 49.0172 15.6327 49.1471 16.2175L49.8571 19.3125C50.417 21.7623 49.1271 22.71 46.9774 21.4296L43.9877 19.6452C43.4478 19.3226 42.5579 19.3226 42.0079 19.6452L39.0183 21.4296C36.8785 22.71 35.5786 21.7522 36.1386 19.3125L36.8485 16.2175C36.9785 15.6327 36.7485 14.8161 36.3286 14.3927L33.8488 11.8925C32.389 10.4206 32.8589 8.92853 34.8987 8.58575L38.0884 8.05143C38.6183 7.9607 39.2582 7.48687 39.4982 6.99288L41.258 3.44418C42.2179 1.51861 43.7777 1.51861 44.7276 3.44418Z" fill="#EF7C25" stroke="white" stroke-width="1.5" stroke-linecap="round" stroke-linejoin="round"/>
<path d="M75.7276 3.44418L77.4874 6.99288C77.7274 7.48687 78.3673 7.9607 78.9073 8.05143L82.0969 8.58575C84.1367 8.92853 84.6167 10.4206 83.1468 11.8925L80.6671 14.3927C80.2471 14.8161 80.0172 15.6327 80.1471 16.2175L80.8571 19.3125C81.417 21.7623 80.1271 22.71 77.9774 21.4296L74.9877 19.6452C74.4478 19.3226 73.5579 19.3226 73.0079 19.6452L70.0183 21.4296C67.8785 22.71 66.5786 21.7522 67.1386 19.3125L67.8485 16.2175C67.9785 15.6327 67.7485 14.8161 67.3286 14.3927L64.8488 11.8925C63.389 10.4206 63.8589 8.92853 65.8987 8.58575L69.0884 8.05143C69.6183 7.9607 70.2582 7.48687 70.4982 6.99288L72.258 3.44418C73.2179 1.51861 74.7777 1.51861 75.7276 3.44418Z" fill="#EF7C25" stroke="white" stroke-width="1.5" stroke-linecap="round" stroke-linejoin="round"/>
<path d="M106.728 3.44418L108.487 6.99288C108.727 7.48687 109.367 7.9607 109.907 8.05143L113.097 8.58575C115.137 8.92853 115.617 10.4206 114.147 11.8925L111.667 14.3927C111.247 14.8161 111.017 15.6327 111.147 16.2175L111.857 19.3125C112.417 21.7623 111.127 22.71 108.977 21.4296L105.988 19.6452C105.448 19.3226 104.558 19.3226 104.008 19.6452L101.018 21.4296C98.8785 22.71 97.5786 21.7522 98.1386 19.3125L98.8485 16.2175C98.9785 15.6327 98.7485 14.8161 98.3286 14.3927L95.8488 11.8925C94.389 10.4206 94.8589 8.92853 96.8987 8.58575L100.088 8.05143C100.618 7.9607 101.258 7.48687 101.498 6.99288L103.258 3.44418C104.218 1.51861 105.778 1.51861 106.728 3.44418Z" fill="#EF7C25" stroke="white" stroke-width="1.5" stroke-linecap="round" stroke-linejoin="round"/>
<path d="M137.728 3.44418L139.487 6.99288C139.727 7.48687 140.367 7.9607 140.907 8.05143L144.097 8.58575C146.137 8.92853 146.617 10.4206 145.147 11.8925L142.667 14.3927C142.247 14.8161 142.017 15.6327 142.147 16.2175L142.857 19.3125C143.417 21.7623 142.127 22.71 139.977 21.4296L136.988 19.6452C136.448 19.3226 135.558 19.3226 135.008 19.6452L132.018 21.4296C129.878 22.71 128.579 21.7522 129.139 19.3125L129.849 16.2175C129.978 15.6327 129.749 14.8161 129.329 14.3927L126.849 11.8925C125.389 10.4206 125.859 8.92853 127.899 8.58575L131.088 8.05143C131.618 7.9607 132.258 7.48687 132.498 6.99288L134.258 3.44418C135.218 1.51861 136.778 1.51861 137.728 3.44418Z" fill="#EF7C25" stroke="white" stroke-width="1.5" stroke-linecap="round" stroke-linejoin="round"/>
</svg>
