<svg width="99" height="96" viewBox="0 0 99 96" fill="none" xmlns="http://www.w3.org/2000/svg">
<g clip-path="url(#clip0_16_759)">
<path d="M81.1798 0H17.9268C8.34809 0 0.583008 7.76508 0.583008 17.3438V78.1476C0.583008 87.7263 8.34809 95.4914 17.9268 95.4914H81.1798C90.7586 95.4914 98.5236 87.7263 98.5236 78.1476V17.3438C98.5236 7.76508 90.7586 0 81.1798 0Z" fill="#330000"/>
<path d="M48.0432 57.3071H32.8652L29.7783 66.8991C29.7375 67.0749 29.6361 67.2306 29.4917 67.3389C29.3474 67.4471 29.1695 67.5009 28.9893 67.4909H21.3027C20.8635 67.4909 20.7103 67.2496 20.8431 66.767L33.9836 28.9159C34.1112 28.5214 34.2427 28.0746 34.378 27.5754C34.5486 26.6983 34.6365 25.8072 34.6404 24.9136C34.6326 24.8608 34.6353 24.8069 34.6484 24.7551C34.6615 24.7033 34.6848 24.6546 34.7168 24.6119C34.7489 24.5692 34.7891 24.5332 34.8352 24.5061C34.8812 24.479 34.9322 24.4613 34.9851 24.454C35.0232 24.4483 35.0619 24.4483 35.1 24.454H45.5461C45.8525 24.454 46.0267 24.5632 46.0727 24.7815L60.9864 66.8321C61.1185 67.2687 60.9864 67.4889 60.5919 67.4889H52.0512C51.9046 67.5052 51.757 67.4676 51.6361 67.383C51.5153 67.2984 51.4293 67.1727 51.3944 67.0293L48.0432 57.3071ZM35.2321 49.023H45.6112C45.3495 48.1459 45.0431 47.1604 44.692 46.0663C44.3409 44.9722 43.9688 43.8002 43.5756 42.5504L42.3922 38.8067C41.9977 37.5581 41.6364 36.353 41.3083 35.1912C40.9802 34.0295 40.6821 32.9699 40.414 32.0124H40.3489C39.9788 33.7864 39.518 35.5402 38.9682 37.267C38.3554 39.2394 37.7311 41.2546 37.0954 43.3126C36.4596 45.3705 35.8385 47.274 35.2321 49.023Z" fill="#FF9A00"/>
<path d="M69.8547 31.4208C69.1846 31.4475 68.5164 31.3326 67.8937 31.0834C67.2711 30.8343 66.708 30.4566 66.2412 29.9751C65.7757 29.4725 65.4142 28.8828 65.1776 28.24C64.941 27.5971 64.8339 26.9138 64.8624 26.2294C64.8397 25.5531 64.9595 24.8797 65.2142 24.2528C65.4689 23.6259 65.8528 23.0597 66.3408 22.591C66.8241 22.1271 67.3943 21.7634 68.0188 21.5208C68.6432 21.2783 69.3095 21.1617 69.9792 21.1777C71.5559 21.1777 72.7929 21.6488 73.6904 22.591C74.6008 23.5787 75.0828 24.887 75.0309 26.2294C75.0585 26.9166 74.9476 27.6023 74.7048 28.2458C74.4621 28.8893 74.0923 29.4774 73.6176 29.9751C73.1237 30.462 72.5345 30.8417 71.887 31.0905C71.2395 31.3393 70.5477 31.4518 69.8547 31.4208ZM65.322 66.8323V35.4269C65.322 35.0325 65.4963 34.8352 65.8467 34.8352H73.9259C74.2745 34.8352 74.4506 35.0267 74.4506 35.4269V66.8323C74.4506 67.2689 74.2764 67.4891 73.9259 67.4891H65.9137C65.5193 67.491 65.322 67.2708 65.322 66.8323Z" fill="#FF9A00"/>
</g>
<defs>
<clipPath id="clip0_16_759">
<rect width="97.9406" height="95.4914" fill="white" transform="translate(0.583008)"/>
</clipPath>
</defs>
</svg>
