<svg width="550" height="70" viewBox="0 0 550 70" fill="none" xmlns="http://www.w3.org/2000/svg">
<path d="M31.2195 45.4316C29.5556 46.727 27.3696 47.5129 24.9758 47.5129C22.5817 47.5129 20.396 46.727 18.7319 45.4316" stroke="white" stroke-width="3.12189" stroke-linecap="round"/>
<path d="M4.89442 37.5511C4.15969 32.7698 3.79233 30.3793 4.69624 28.2601C5.60013 26.1408 7.60555 24.6908 11.6164 21.7909L14.6131 19.6242C19.6025 16.0167 22.0971 14.2129 24.9757 14.2129C27.8541 14.2129 30.3489 16.0167 35.3383 19.6242L38.3349 21.7909C42.3459 24.6908 44.3512 26.1408 45.2551 28.2601C46.159 30.3793 45.7916 32.7698 45.0569 37.5511L44.4305 41.6281C43.3888 48.4057 42.8681 51.7946 40.4374 53.8163C38.0067 55.8381 34.4529 55.8381 27.3458 55.8381H22.6056C15.4983 55.8381 11.9447 55.8381 9.514 53.8163C7.08328 51.7946 6.56251 48.4057 5.52096 41.6281L4.89442 37.5511Z" stroke="white" stroke-width="3.12189" stroke-linejoin="round"/>
<path d="M106.21 53.7575H103.294C95.8319 53.7575 92.101 53.7575 89.7829 51.3955C87.4648 49.0333 87.4648 45.2314 87.4648 37.6278C87.4648 30.0242 87.4648 26.2223 89.7829 23.8602C92.101 21.498 95.8319 21.498 103.294 21.498H111.208C118.67 21.498 122.401 21.498 124.719 23.8602C126.503 25.6776 126.914 28.3473 127.009 32.9449" stroke="white" stroke-width="3.12189" stroke-linecap="round"/>
<path d="M124.962 51.7235L129.09 55.8376M127.119 46.5271C127.119 42.4736 123.832 39.1875 119.779 39.1875C115.725 39.1875 112.439 42.4736 112.439 46.5271C112.439 50.5807 115.725 53.8668 119.779 53.8668C123.832 53.8668 127.119 50.5807 127.119 46.5271Z" stroke="white" stroke-width="3.12189" stroke-linecap="round" stroke-linejoin="round"/>
<path d="M116.602 21.4973L116.395 20.8541C115.365 17.6488 114.85 16.0462 113.623 15.1295C112.397 14.2129 110.768 14.2129 107.51 14.2129H106.962C103.704 14.2129 102.075 14.2129 100.849 15.1295C99.6227 16.0462 99.1076 17.6488 98.0774 20.8541L97.8706 21.4973" stroke="white" stroke-width="3.12189"/>
<path d="M203.027 46.4746L212.393 55.8403" stroke="white" stroke-width="3.12189" stroke-linecap="round" stroke-linejoin="round"/>
<path d="M208.23 32.9462C208.23 22.6011 199.844 14.2148 189.499 14.2148C179.154 14.2148 170.768 22.6011 170.768 32.9462C170.768 43.2913 179.154 51.6775 189.499 51.6775C199.844 51.6775 208.23 43.2913 208.23 32.9462Z" stroke="white" stroke-width="3.12189" stroke-linejoin="round"/>
<path d="M282.166 32.9426C282.166 36.9657 278.905 40.227 274.882 40.227C270.859 40.227 267.598 36.9657 267.598 32.9426C267.598 28.9195 270.859 25.6582 274.882 25.6582C278.905 25.6582 282.166 28.9195 282.166 32.9426Z" stroke="white" stroke-width="3.12189"/>
<path d="M274.882 14.2109C285.019 14.2109 293.614 22.6046 293.614 32.7878C293.614 43.1331 284.879 50.393 276.812 55.3297C276.224 55.6617 275.559 55.8361 274.882 55.8361C274.206 55.8361 273.541 55.6617 272.953 55.3297C264.9 50.3449 256.151 43.1689 256.151 32.7878C256.151 22.6046 264.745 14.2109 274.882 14.2109Z" stroke="white" stroke-width="3.12189"/>
<path d="M337.372 47.5125C337.372 44.3066 337.372 42.7034 338.094 41.5258C338.497 40.8669 339.051 40.3128 339.71 39.9091C340.888 39.1875 342.491 39.1875 345.697 39.1875C348.903 39.1875 350.506 39.1875 351.684 39.9091C352.343 40.3128 352.897 40.8669 353.301 41.5258C354.022 42.7034 354.022 44.3066 354.022 47.5125C354.022 50.7185 354.022 52.3217 353.301 53.4993C352.897 54.1582 352.343 54.7122 351.684 55.116C350.506 55.8376 348.903 55.8376 345.697 55.8376C342.491 55.8376 340.888 55.8376 339.71 55.116C339.051 54.7122 338.497 54.1582 338.094 53.4993C337.372 52.3217 337.372 50.7185 337.372 47.5125Z" stroke="white" stroke-width="3.12189"/>
<path d="M362.347 47.5125C362.347 44.3066 362.347 42.7034 363.069 41.5258C363.473 40.8669 364.027 40.3128 364.685 39.9091C365.863 39.1875 367.466 39.1875 370.672 39.1875C373.878 39.1875 375.481 39.1875 376.659 39.9091C377.318 40.3128 377.872 40.8669 378.276 41.5258C378.997 42.7034 378.997 44.3066 378.997 47.5125C378.997 50.7185 378.997 52.3217 378.276 53.4993C377.872 54.1582 377.318 54.7122 376.659 55.116C375.481 55.8376 373.878 55.8376 370.672 55.8376C367.466 55.8376 365.863 55.8376 364.685 55.116C364.027 54.7122 363.473 54.1582 363.069 53.4993C362.347 52.3217 362.347 50.7185 362.347 47.5125Z" stroke="white" stroke-width="3.12189"/>
<path d="M337.372 22.536C337.372 19.3299 337.372 17.7269 338.094 16.5493C338.497 15.8904 339.051 15.3364 339.71 14.9326C340.888 14.2109 342.491 14.2109 345.697 14.2109C348.903 14.2109 350.506 14.2109 351.684 14.9326C352.343 15.3364 352.897 15.8904 353.301 16.5493C354.022 17.7269 354.022 19.3299 354.022 22.536C354.022 25.742 354.022 27.3451 353.301 28.5226C352.897 29.1816 352.343 29.7356 351.684 30.1394C350.506 30.861 348.903 30.861 345.697 30.861C342.491 30.861 340.888 30.861 339.71 30.1394C339.051 29.7356 338.497 29.1816 338.094 28.5226C337.372 27.3451 337.372 25.742 337.372 22.536Z" stroke="white" stroke-width="3.12189"/>
<path d="M362.347 22.536C362.347 19.3299 362.347 17.7269 363.069 16.5493C363.473 15.8904 364.027 15.3364 364.685 14.9326C365.863 14.2109 367.466 14.2109 370.672 14.2109C373.878 14.2109 375.481 14.2109 376.659 14.9326C377.318 15.3364 377.872 15.8904 378.276 16.5493C378.997 17.7269 378.997 19.3299 378.997 22.536C378.997 25.742 378.997 27.3451 378.276 28.5226C377.872 29.1816 377.318 29.7356 376.659 30.1394C375.481 30.861 373.878 30.861 370.672 30.861C367.466 30.861 365.863 30.861 364.685 30.1394C364.027 29.7356 363.473 29.1816 363.069 28.5226C362.347 27.3451 362.347 25.742 362.347 22.536Z" stroke="white" stroke-width="3.12189"/>
<path d="M433.162 53.7614C433.162 50.818 433.162 49.3464 434.076 48.4319C434.991 47.5176 436.463 47.5176 439.406 47.5176H443.568C446.512 47.5176 447.983 47.5176 448.898 48.4319C449.812 49.3464 449.812 50.818 449.812 53.7614V55.8426H433.162V53.7614Z" stroke="white" stroke-width="3.12189" stroke-linecap="round" stroke-linejoin="round"/>
<path d="M441.487 37.1074V47.5137" stroke="white" stroke-width="3.12189" stroke-linecap="round" stroke-linejoin="round"/>
<path d="M429 55.8398H453.975" stroke="white" stroke-width="3.12189" stroke-linecap="round" stroke-linejoin="round"/>
<path d="M443.645 16.0183L445.843 20.4497C446.142 21.0666 446.941 21.6583 447.616 21.7716L451.599 22.4388C454.146 22.8669 454.745 24.7301 452.91 26.5682L449.813 29.6903C449.289 30.2191 449.002 31.2387 449.164 31.969L450.05 35.8339C450.75 38.8932 449.139 40.0766 446.454 38.4777L442.721 36.2493C442.047 35.8464 440.935 35.8464 440.249 36.2493L436.515 38.4777C433.843 40.0766 432.22 38.8805 432.919 35.8339L433.806 31.969C433.968 31.2387 433.681 30.2191 433.157 29.6903L430.06 26.5682C428.237 24.7301 428.824 22.8669 431.371 22.4388L435.354 21.7716C436.016 21.6583 436.815 21.0666 437.115 20.4497L439.312 16.0183C440.511 13.6137 442.459 13.6137 443.645 16.0183Z" stroke="white" stroke-width="3.12189" stroke-linecap="round" stroke-linejoin="round"/>
<path d="M517.985 54.7967C520.674 50.1701 526.833 49.6246 530.341 53.16C531.125 53.9505 531.517 54.3459 531.865 54.3931C532.213 54.4404 534.395 53.1889 535.17 52.7448C535.959 52.2921 538.149 51.0363 538.286 50.7079C538.424 50.3792 538.28 49.8192 537.992 48.699C536.944 44.6258 539.485 40.339 543.544 39.2335C544.63 38.9375 545.173 38.7895 545.388 38.5067C545.602 38.2238 545.602 35.7363 545.602 34.8262C545.602 33.9163 545.602 31.4285 545.388 31.1457C545.173 30.8628 544.63 30.7149 543.544 30.4191C539.484 29.3134 536.941 25.0267 537.989 20.9533C538.276 19.833 538.42 19.2728 538.283 18.9443C538.145 18.6159 535.956 17.3603 535.167 16.9075C534.392 16.4632 532.21 15.2118 531.862 15.2591C531.514 15.3064 531.122 15.7017 530.338 16.4921C527.3 19.5524 522.275 19.5526 519.238 16.4923C518.454 15.7019 518.062 15.3066 517.714 15.2593C517.366 15.212 515.184 16.4635 514.41 16.9078C513.62 17.3605 511.431 18.6161 511.293 18.9446C511.155 19.2731 511.3 19.8332 511.588 20.9535C512.635 25.0268 510.095 29.3133 506.035 30.419C504.949 30.7149 504.406 30.8628 504.192 31.1459C503.977 31.4285 503.977 33.9163 503.977 34.8262C503.977 35.7363 503.977 38.2238 504.192 38.5069C504.406 38.7897 504.949 38.9375 506.035 39.2333C506.047 39.2368 506.06 39.2403 506.073 39.2437" stroke="white" stroke-width="3.12189" stroke-linecap="round"/>
<path d="M504.995 47.8955C507.242 45.6487 514.885 38.0844 515.634 37.2105C516.426 36.2868 515.784 35.0387 516.166 31.169C516.351 29.2968 516.754 27.894 517.907 26.8502C519.28 25.552 520.404 25.552 524.275 25.4646C527.647 25.552 528.047 25.1776 528.396 26.0513C528.646 26.6755 527.897 27.0499 526.998 28.0485C525 30.0457 523.826 31.0444 523.713 31.6685C522.902 34.4145 526.099 36.0373 527.847 34.2897C528.508 33.6289 531.568 30.545 531.868 30.2953C532.093 30.0956 532.631 30.1053 532.892 30.4202C533.117 30.6409 533.142 30.6698 533.117 31.6683C533.093 32.5928 533.104 33.9198 533.107 35.2882C533.11 37.0615 533.017 39.0331 532.267 40.0316C530.769 42.2784 528.271 42.4032 526.024 42.5031C523.901 42.628 522.152 42.4032 521.603 42.8026C521.153 43.0274 518.781 45.5239 515.909 48.3948L510.789 53.5126C506.543 56.883 501.873 51.6403 504.995 47.8955Z" stroke="white" stroke-width="3.12189" stroke-linecap="round"/>
</svg>
