<svg width="99" height="96" viewBox="0 0 99 96" fill="none" xmlns="http://www.w3.org/2000/svg">
<g clip-path="url(#clip0_16_740)">
<path d="M81.1232 0H17.8299C8.24593 0 0.476562 7.76937 0.476562 17.3534V78.1974C0.476562 87.7814 8.24593 95.5508 17.8299 95.5508H81.1232C90.7072 95.5508 98.4766 87.7814 98.4766 78.1974V17.3534C98.4766 7.76937 90.7072 0 81.1232 0Z" fill="#001E36"/>
<path d="M22.5444 67.0061V24.9957C22.5444 24.6912 22.6747 24.5361 22.9389 24.5361C23.6379 24.5361 24.2794 24.5361 25.2369 24.5036C26.1943 24.471 27.2418 24.4595 28.3602 24.4384L31.9105 24.3714C33.1591 24.3497 34.3968 24.3389 35.6236 24.3389C38.9544 24.3389 41.763 24.7551 44.0494 25.5874C46.1049 26.2842 47.9796 27.4296 49.5377 28.9405C50.8589 30.2509 51.8795 31.8328 52.5289 33.5766C53.1432 35.2747 53.4537 37.0677 53.4461 38.8734C53.4461 42.3816 52.6355 45.2745 51.0141 47.552C49.3814 49.8393 47.0871 51.5716 44.4401 52.5156C41.6787 53.5458 38.609 53.8944 35.2349 53.8944C34.2774 53.8944 33.5918 53.8848 33.1974 53.8618C32.8029 53.8388 32.2112 53.8293 31.4222 53.8293V66.9448C31.4322 67.0129 31.4286 67.0823 31.4116 67.1489C31.3947 67.2156 31.3647 67.2783 31.3234 67.3333C31.2821 67.3883 31.2303 67.4346 31.171 67.4695C31.1117 67.5044 31.0461 67.5271 30.9779 67.5365C30.9291 67.5442 30.8793 67.5442 30.8305 67.5365H23.004C22.69 67.5308 22.5444 67.3565 22.5444 67.0061ZM31.4222 32.4257V46.1273C31.9916 46.172 32.5175 46.1937 33.0001 46.1924H35.1698C36.7662 46.1869 38.3522 45.9337 39.871 45.4417C41.1729 45.0566 42.3368 44.3055 43.2241 43.2778C44.0782 42.2706 44.5052 40.8663 44.5052 39.0649C44.5383 37.793 44.206 36.5383 43.5477 35.4495C42.8578 34.3963 41.8602 33.5813 40.6906 33.1151C39.166 32.523 37.5379 32.2436 35.9032 32.2936C34.85 32.2936 33.9187 32.3045 33.1093 32.3262C32.2999 32.3479 31.7407 32.3811 31.4318 32.4257H31.4222Z" fill="#31A8FF"/>
<path d="M78.8654 43.6361C77.63 43.0006 76.3138 42.5361 74.9532 42.2554C73.4544 41.911 71.9219 41.7343 70.3841 41.7288C69.5524 41.7065 68.7221 41.8066 67.9195 42.0256C67.408 42.1388 66.9534 42.43 66.6365 42.8471C66.4223 43.1807 66.3086 43.569 66.309 43.9654C66.3206 44.3499 66.4594 44.7196 66.7035 45.0168C67.0872 45.4661 67.5566 45.8345 68.0842 46.1006C69.021 46.6037 69.9865 47.0513 70.9758 47.4411C73.1823 48.1801 75.2908 49.1845 77.2549 50.4323C78.5917 51.2775 79.6983 52.4407 80.4759 53.8179C81.1311 55.1241 81.4597 56.5697 81.4334 58.0308C81.4722 59.9577 80.9217 61.8504 79.8554 63.4559C78.7132 65.0844 77.1273 66.3506 75.2864 67.1039C73.2871 67.9822 70.8194 68.4214 67.8831 68.4214C66.0187 68.4387 64.1576 68.2622 62.3297 67.8948C60.8891 67.6306 59.4869 67.1887 58.1551 66.5792C58.0111 66.5053 57.8911 66.3918 57.8093 66.252C57.7276 66.1122 57.6874 65.952 57.6936 65.7902V58.6915C57.6853 58.6219 57.6963 58.5513 57.7253 58.4875C57.7543 58.4237 57.8004 58.369 57.8583 58.3296C57.9147 58.2973 57.9797 58.2832 58.0444 58.289C58.1091 58.2948 58.1705 58.3203 58.2202 58.3621C59.7945 59.2902 61.5041 59.9667 63.2872 60.3671C64.8577 60.7612 66.4689 60.9708 68.088 60.9913C69.62 60.9913 70.7485 60.7941 71.4737 60.3996C71.8001 60.2501 72.0762 60.0092 72.2685 59.7061C72.4609 59.4029 72.5613 59.0505 72.5575 58.6915C72.5575 58.1208 72.2288 57.5725 71.5713 57.0465C70.9139 56.5206 69.5759 55.8886 67.5576 55.1507C65.4934 54.4324 63.5363 53.4371 61.7399 52.1921C60.4552 51.2997 59.3968 50.1193 58.6492 48.7452C58.0012 47.4501 57.6729 46.0186 57.6917 44.5706C57.6861 42.8262 58.1647 41.1146 59.0743 39.6261C60.1078 37.9909 61.5921 36.6894 63.3485 35.8786C65.2762 34.9147 67.6865 34.4328 70.5794 34.4328C72.274 34.4185 73.967 34.5389 75.6425 34.7928C76.8554 34.9487 78.0411 35.2709 79.1661 35.7503C79.2554 35.7759 79.3375 35.8219 79.406 35.8847C79.4744 35.9475 79.5273 36.0254 79.5605 36.1122C79.6051 36.2724 79.627 36.4381 79.6257 36.6043V43.2454C79.631 43.3222 79.6161 43.399 79.5825 43.4682C79.5489 43.5374 79.4978 43.5966 79.4342 43.6399C79.3455 43.6833 79.248 43.7056 79.1493 43.7049C79.0506 43.7042 78.9535 43.6807 78.8654 43.6361Z" fill="#31A8FF"/>
</g>
<defs>
<clipPath id="clip0_16_740">
<rect width="98" height="95.5508" fill="white" transform="translate(0.476562)"/>
</clipPath>
</defs>
</svg>
