<svg width="66" height="95" viewBox="0 0 66 95" fill="none" xmlns="http://www.w3.org/2000/svg">
<g clip-path="url(#clip0_38_3028)">
<path d="M32.9424 45.7799C32.9424 37.985 39.2632 31.6679 47.0563 31.6679H49.0977C49.1533 31.6697 49.2145 31.666 49.272 31.666C58.0163 31.666 65.1066 38.7582 65.1066 47.5006C65.1066 56.243 58.0163 63.3333 49.272 63.3333C49.2145 63.3333 49.1533 63.3314 49.0959 63.3314L47.0563 63.3333C39.2632 63.3333 32.9424 57.0125 32.9424 49.2194V45.7799Z" fill="#00B6FF"/>
<path d="M0.952637 79.1694C0.952637 70.4252 8.04296 63.333 16.7872 63.333L32.9425 63.3349V79.0063C32.9425 87.8414 25.7002 95.0003 16.8651 95.0003C8.12269 95.0003 0.952637 87.9118 0.952637 79.1694Z" fill="#24CB71"/>
<path d="M32.9424 0.00234245V31.6678H49.0977C49.1533 31.6659 49.2145 31.6696 49.272 31.6696C58.0163 31.6696 65.1066 24.5774 65.1066 15.8351C65.1066 7.09082 58.0163 0.000488281 49.272 0.000488281C49.2145 0.000488281 49.1533 0.00234245 49.0959 0.00234245H32.9424Z" fill="#FF7237"/>
<path d="M0.952637 15.8333C0.952637 24.5775 8.04296 31.6679 16.7872 31.6679H32.9425V0.00244141H16.7854C8.04296 0.00244141 0.952637 7.09091 0.952637 15.8333Z" fill="#FF3737"/>
<path d="M0.952637 47.5003C0.952637 56.2445 8.04296 63.3349 16.7872 63.3349H32.9425V31.6694H16.7854C8.04296 31.6694 0.952637 38.7579 0.952637 47.5003Z" fill="#874FFF"/>
</g>
<defs>
<clipPath id="clip0_38_3028">
<rect width="64.1541" height="95" fill="white" transform="translate(0.952637)"/>
</clipPath>
</defs>
</svg>
