<svg width="263" height="264" viewBox="0 0 263 264" fill="none" xmlns="http://www.w3.org/2000/svg">
<g clip-path="url(#clip0_29_796)">
<path fill-rule="evenodd" clip-rule="evenodd" d="M117.04 8.77246C136.378 8.76991 155.357 13.9955 171.969 23.8963C188.58 33.797 202.206 48.0045 211.404 65.0152C220.602 82.0258 225.03 101.207 224.22 120.528C223.409 139.849 217.39 158.592 206.8 174.772L253.2 225.352L221.2 254.612L176.44 205.292C162.505 214.565 146.594 220.447 129.979 222.468C113.364 224.489 96.5066 222.593 80.7557 216.931C65.0048 211.27 50.7978 202 39.2714 189.864C27.7451 177.728 19.2195 163.062 14.3768 147.04C9.53413 131.019 8.50885 114.086 11.383 97.5972C14.2572 81.1084 20.951 65.5212 30.9288 52.0829C40.9065 38.6447 53.8913 27.7285 68.844 20.2079C83.7967 12.6872 100.302 8.77097 117.04 8.77246ZM101.8 136.252V133.712C101.687 129.008 102.143 124.307 103.16 119.712C105.98 109.152 112.4 107.232 119.96 101.332C123.16 98.8925 125.76 95.8525 125.76 91.6525C125.76 84.0325 117.14 80.5925 110.96 84.0725C109.32 84.9404 107.953 86.2475 107.014 87.8475C106.074 89.4475 105.599 91.2774 105.64 93.1325H78.4996C78.4996 79.3925 84.4996 68.6725 97.5996 63.4525C110.238 58.9096 124.058 58.8743 136.72 63.3525C148.82 67.8725 155.9 76.8125 155.9 89.9325C156.021 93.8258 155.304 97.6997 153.8 101.292C148.48 112.992 140.2 113.812 132.18 121.132C127.2 125.632 126.94 130.092 126.94 136.252H101.8ZM114.74 171.892C112.787 171.923 110.848 171.558 109.039 170.819C107.231 170.08 105.592 168.983 104.22 167.592C102.806 166.236 101.69 164.6 100.943 162.789C100.196 160.978 99.8336 159.031 99.8796 157.072C99.8522 155.147 100.226 153.237 100.976 151.464C101.727 149.691 102.838 148.093 104.24 146.772C107.011 144.031 110.751 142.493 114.65 142.493C118.548 142.493 122.289 144.031 125.06 146.772C126.499 148.087 127.648 149.687 128.433 151.471C129.219 153.255 129.623 155.183 129.62 157.132C129.598 159.777 128.851 162.364 127.46 164.612C126.106 166.812 124.239 168.651 122.02 169.972C119.833 171.301 117.319 171.994 114.76 171.972L114.74 171.892ZM184.4 48.6325C168.792 33.0683 148.272 23.3966 126.333 21.2652C104.395 19.1337 82.3964 24.6743 64.085 36.9431C45.7735 49.2119 32.2821 67.4499 25.9092 88.55C19.5362 109.65 20.676 132.307 29.1342 152.661C37.5924 173.015 52.8459 189.807 72.2961 200.177C91.7462 210.546 114.19 213.851 135.804 209.529C157.417 205.207 176.864 193.524 190.83 176.473C204.797 159.421 212.42 138.054 212.4 116.012C212.406 103.49 209.935 91.0897 205.13 79.5258C200.324 67.9619 193.279 57.4626 184.4 48.6325Z" fill="url(#paint0_linear_29_796)"/>
</g>
<defs>
<linearGradient id="paint0_linear_29_796" x1="253" y1="244.602" x2="46.9996" y2="27.6016" gradientUnits="userSpaceOnUse">
<stop stop-color="#F38121"/>
<stop offset="1" stop-color="#AA2C6C"/>
</linearGradient>
<clipPath id="clip0_29_796">
<rect width="243.4" height="245.76" fill="white" transform="translate(9.7998 8.77246)"/>
</clipPath>
</defs>
</svg>
