<svg width="48" height="48" viewBox="0 0 48 48" fill="none" xmlns="http://www.w3.org/2000/svg">
<path d="M23.9999 44C12.9542 44 4 35.0456 4 24C4 12.9543 12.9543 4 23.9999 4C32.9553 4 40.4513 9.88578 42.9999 18H37.9999" stroke="white" stroke-width="3" stroke-linecap="round" stroke-linejoin="round"/>
<path d="M24 16V24L28 28" stroke="white" stroke-width="3" stroke-linecap="round" stroke-linejoin="round"/>
<path d="M43.9102 26C43.9696 25.3418 44 24.6746 44 24M30 44C30.6832 43.7752 31.3506 43.5128 32 43.2156M41.5812 34C41.967 33.2568 42.311 32.4866 42.61 31.6924M36.385 40.4584C37.0738 39.8882 37.7262 39.2716 38.3376 38.613" stroke="white" stroke-width="3" stroke-linecap="round" stroke-linejoin="round"/>
</svg>
