<svg width="48" height="49" viewBox="0 0 48 49" fill="none" xmlns="http://www.w3.org/2000/svg">
<path d="M14 20.2V34.2" stroke="white" stroke-width="3" stroke-linecap="round" stroke-linejoin="round"/>
<path d="M22 26.2V34.2M22 26.2C22 22.8862 24.6862 20.2 28 20.2C31.3138 20.2 34 22.8862 34 26.2V34.2M22 26.2V20.2" stroke="white" stroke-width="3" stroke-linecap="round" stroke-linejoin="round"/>
<path d="M14.016 14.2H13.998" stroke="white" stroke-width="4" stroke-linecap="round" stroke-linejoin="round"/>
<path d="M5 24.2C5 15.2433 5 10.7649 7.78248 7.98243C10.565 5.19995 15.0433 5.19995 24 5.19995C32.9566 5.19995 37.435 5.19995 40.2176 7.98243C43 10.7649 43 15.2433 43 24.2C43 33.1566 43 37.635 40.2176 40.4176C37.435 43.2 32.9566 43.2 24 43.2C15.0433 43.2 10.565 43.2 7.78248 40.4176C5 37.635 5 33.1566 5 24.2Z" stroke="white" stroke-width="3" stroke-linejoin="round"/>
</svg>
